<svg xmlns="http://www.w3.org/2000/svg" version="1.1" xmlns:xlink="http://www.w3.org/1999/xlink" xmlns:svgjs="http://svgjs.dev/svgjs" width="1000" height="1125" viewBox="0 0 1000 1125"><g transform="matrix(1,0,0,1,0,0)"><svg viewBox="0 0 320 360" data-background-color="#ffffff" preserveAspectRatio="xMidYMid meet" height="1125" width="1000" xmlns="http://www.w3.org/2000/svg" xmlns:xlink="http://www.w3.org/1999/xlink"><g id="tight-bounds" transform="matrix(1,0,0,1,0,0)"><svg viewBox="0 0 320 360" height="360" width="320"><g><svg></svg></g><g><svg viewBox="0 0 320 360" height="360" width="320"><g><path xmlns="http://www.w3.org/2000/svg" d="M159.823 340.15v0c-7.794 0-14.524-4.96-16.65-12.399-1.063-3.897-5.314-6.022-8.856-4.96-1.417 0.354-2.834 1.417-3.897 2.834-5.668 7.794-16.296 9.919-24.444 4.251-4.96-3.188-7.794-8.856-7.439-14.878 0-3.897-3.188-7.439-7.085-7.44-1.771 0-3.188 0.354-4.605 1.417-7.794 5.668-18.775 4.251-24.444-3.542-3.543-4.605-4.605-10.628-2.479-16.296 1.417-3.897-0.709-7.794-4.606-9.21-1.417-0.354-3.188-0.354-4.605 0-9.211 3.188-19.13-1.771-22.318-10.982-1.771-5.314-1.063-11.69 2.48-16.296 2.48-3.188 1.771-7.794-1.417-9.919-1.417-1.063-2.834-1.417-4.605-1.417-9.565 0.354-17.713-7.439-17.713-17.004 0-6.022 2.834-11.336 7.439-14.879 3.188-2.126 3.897-6.731 1.771-9.919-1.063-1.417-2.126-2.126-3.896-2.834-9.211-2.834-14.524-12.753-11.691-21.963 1.771-5.668 6.022-9.919 11.691-11.691 3.897-1.063 6.022-5.314 4.959-8.856-0.354-1.417-1.417-2.834-2.834-3.897-7.794-5.668-9.919-16.296-4.251-24.443 3.188-4.96 8.856-7.794 14.879-7.44 3.897 0 7.439-3.188 7.439-7.085 0-1.771-0.354-3.188-1.417-4.605-5.668-7.794-4.251-18.775 3.543-24.443 4.605-3.543 10.628-4.605 16.295-2.48 3.897 1.417 7.794-0.709 9.211-4.605 0.354-1.417 0.354-3.188 0-4.606-3.188-9.211 1.771-19.13 10.982-22.318 5.314-1.771 11.69-1.063 16.295 2.48 3.188 2.48 7.794 1.771 9.919-1.417 1.063-1.417 1.417-2.834 1.417-4.605-0.354-9.565 7.439-17.713 17.005-17.713 6.022 0 11.336 2.834 14.878 7.439 2.126 3.188 6.731 3.897 9.919 1.772 1.417-1.063 2.126-2.126 2.834-3.897 2.834-9.211 12.753-14.524 21.964-11.69 5.668 1.771 9.919 6.022 11.69 11.69v0c0.709 2.48 2.834 4.605 5.668 4.96 2.834 0.354 5.314-0.709 7.085-2.835 5.668-7.794 16.296-9.919 24.444-4.251 4.96 3.188 7.794 8.856 7.439 14.879 0 3.897 3.188 7.439 7.085 7.439 1.771 0 3.188-0.354 4.605-1.417 7.794-5.668 18.775-4.251 24.444 3.543 3.543 4.605 4.605 10.628 2.48 16.296-1.417 3.897 0.709 7.794 4.605 9.21 1.417 0.354 3.188 0.354 4.605 0 9.211-3.188 19.13 1.771 22.318 10.982 1.771 5.314 1.063 11.69-2.48 16.296-2.48 3.188-1.771 7.794 1.417 9.919 1.417 1.063 2.834 1.417 4.606 1.417 9.565-0.354 17.713 7.439 17.712 17.004 0 6.022-2.834 11.336-7.439 14.878-2.48 1.417-3.543 4.251-3.188 7.085 0.354 2.834 2.48 4.96 4.959 5.669 9.211 2.834 14.524 12.753 11.691 21.963-1.771 5.668-6.022 9.919-11.691 11.691-3.897 1.063-6.022 5.314-4.959 8.856 0.354 1.417 1.417 2.834 2.834 3.897 7.794 5.668 9.919 16.296 4.251 24.443-3.188 4.96-8.856 7.794-14.879 7.439-2.834 0-5.314 1.417-6.731 3.897-1.417 2.48-1.063 5.314 0.709 7.794 5.668 7.794 4.251 18.775-3.543 24.443-4.605 3.543-10.628 4.605-16.295 2.48-3.897-1.417-7.794 0.709-9.211 4.605-0.354 1.417-0.354 3.188 0 4.606 3.188 9.211-1.771 19.13-10.982 22.317-5.314 1.771-11.69 1.063-16.295-2.479-3.188-2.48-7.794-1.771-9.919 1.417-1.063 1.417-1.417 2.834-1.417 4.605 0.354 9.565-7.439 17.713-17.005 17.713-6.022 0-11.336-2.834-14.878-7.44-1.417-2.126-4.251-3.543-7.085-2.834-2.834 0.354-4.96 2.48-5.668 4.96-2.126 7.439-8.856 12.399-16.65 12.399zM136.088 312.518c1.063 0 1.771 0 2.834 0.354 6.731 1.063 12.045 5.668 13.816 12.045 1.063 3.897 5.314 6.022 8.856 4.605 2.126-0.709 3.897-2.48 4.605-4.605 2.834-9.211 12.753-14.524 21.964-11.691 3.543 1.063 7.085 3.543 9.211 6.731 2.48 3.188 6.731 3.897 10.273 1.417 1.771-1.417 2.834-3.543 2.834-5.668-0.354-9.565 7.439-17.713 17.004-17.712 3.897 0 7.794 1.063 10.982 3.542 3.188 2.48 7.794 1.771 9.919-1.417 1.417-1.771 1.771-4.605 1.063-6.731-3.188-9.211 1.417-19.13 10.627-22.318 3.897-1.417 7.794-1.417 11.691 0 3.897 1.417 7.794-0.709 9.21-4.605 0.709-2.126 0.354-4.96-1.062-6.731-5.668-7.794-4.251-18.775 3.542-24.443 3.188-2.48 7.085-3.543 10.982-3.543 3.897 0 7.085-3.188 7.439-7.085 0-2.48-1.063-4.605-3.188-6.022-7.794-5.668-9.919-16.296-4.251-24.443 2.126-3.188 5.314-5.668 9.211-6.731 3.897-1.063 6.022-5.314 4.605-8.857-0.709-2.126-2.48-3.897-4.605-4.605-9.211-2.834-14.524-12.753-11.691-21.964 1.063-3.543 3.543-7.085 6.731-9.21 3.188-2.48 3.897-7.085 1.417-10.273-1.417-1.771-3.543-2.834-5.668-2.834-9.565 0.354-17.713-7.439-17.713-17.005 0-3.897 1.063-7.794 3.543-10.981 2.48-3.188 1.771-7.794-1.417-9.92-1.771-1.417-4.605-1.771-6.731-1.062-9.211 3.188-19.13-1.417-22.318-10.628-1.417-3.897-1.417-7.794 0-11.69 1.417-3.897-0.709-7.794-4.605-9.211-2.126-0.709-4.96-0.354-6.731 1.063-7.794 5.668-18.775 4.251-24.443-3.543-2.48-3.188-3.543-7.085-3.543-10.981 0-3.897-3.188-7.085-7.439-7.085-2.126 0-4.605 1.063-5.668 2.834-5.668 7.794-16.296 9.919-24.444 4.251-3.188-2.126-5.668-5.314-6.731-9.211v0c-1.063-3.897-5.314-6.022-8.856-4.605-2.126 0.709-3.897 2.48-4.605 4.605-2.834 9.211-12.753 14.524-21.964 11.69-3.543-1.063-7.085-3.543-9.21-6.73-2.48-3.188-6.731-3.897-10.274-1.417-1.771 1.417-2.834 3.543-2.834 5.668 0.354 9.565-7.439 17.713-17.004 17.712-3.897 0-7.794-1.063-10.982-3.542-3.188-2.48-7.794-1.771-9.919 1.417-1.417 1.771-1.771 4.605-1.063 6.731 3.188 9.211-1.417 19.13-10.627 22.317-3.897 1.417-7.794 1.417-11.691 0-3.897-1.417-7.794 0.709-9.21 4.606-0.709 2.126-0.354 4.96 1.063 6.731 5.668 7.794 4.251 18.775-3.543 24.443-3.188 2.48-7.085 3.543-10.982 3.543-3.897 0-7.085 3.188-7.085 7.439 0 2.126 1.063 4.605 2.834 5.668 7.794 5.668 9.919 16.296 4.251 24.443-2.126 3.188-5.314 5.668-9.21 6.731-3.897 1.063-6.022 5.314-4.606 8.856 0.709 2.126 2.48 3.897 4.606 4.606 9.211 2.834 14.524 12.753 11.69 21.963-1.063 3.543-3.543 7.085-6.731 9.211-3.188 2.48-3.897 6.731-1.417 10.273 1.417 1.771 3.543 2.834 5.668 2.834 9.565-0.354 17.713 7.439 17.713 17.004 0 3.897-1.063 7.794-3.543 10.982-2.48 3.188-1.771 7.794 1.417 9.919 1.771 1.417 4.605 1.771 6.731 1.063 9.211-3.188 19.13 1.417 22.318 10.628 1.417 3.897 1.417 7.794 0 11.69-1.417 3.897 0.709 7.794 4.605 9.211 2.126 0.709 4.96 0.354 6.731-1.063 7.794-5.668 18.775-4.251 24.444 3.542 2.48 3.188 3.543 7.085 3.542 10.982 0 3.897 3.188 7.085 7.085 7.44 2.48 0 4.605-1.063 6.023-3.189 3.543-4.605 8.856-7.439 14.524-7.439z" fill="#5a97f7" fill-rule="nonzero" stroke="none" stroke-width="1" stroke-linecap="butt" stroke-linejoin="miter" stroke-miterlimit="10" stroke-dasharray="" stroke-dashoffset="0" font-family="none" font-weight="none" font-size="none" text-anchor="none" style="mix-blend-mode: normal" data-fill-palette-color="tertiary"></path></g><g transform="matrix(1,0,0,1,56,90)"><svg viewBox="0 0 208 180" height="180" width="208"><g><svg viewBox="0 0 208 180" height="180" width="208"><g><svg viewBox="0 0 208 180" height="180" width="208"><g><svg viewBox="0 0 208 180" height="180" width="208"><g><svg viewBox="0 0 208 180" height="180" width="208"><g transform="matrix(1,0,0,1,67.32787969392353,58.18019484660536)"><svg viewBox="0 0 73.34424061215294 63.63961030678928" height="63.63961030678928" width="73.34424061215294"><g><svg xmlns="http://www.w3.org/2000/svg" xmlns:xlink="http://www.w3.org/1999/xlink" version="1.1" x="0" y="0" viewBox="0.10899925231933594 7.868995666503906 99.82899475097656 86.62000274658203" enable-background="new 0 0 100 100" xml:space="preserve" height="63.63961030678928" width="73.34424061215294" class="icon-o-0" data-fill-palette-color="accent" id="o-0"><g fill="#5a97f7" data-fill-palette-color="accent"><path d="M89.633 72.435H79L67.251 84.184 56.062 72.435H10.414V18.173h79.219V72.435zM10.414 7.869c-5.692 0-10.305 4.614-10.305 10.305v54.261c0 5.69 4.613 10.306 10.305 10.306h41.23l8.145 8.552c1.913 2.012 4.561 3.162 7.335 3.196 0.042 0 0.085 0 0.127 0 2.73 0 5.352-1.084 7.284-3.017l8.733-8.731h6.363c5.689 0 10.305-4.615 10.305-10.306l0.002-54.261c0-5.691-4.612-10.305-10.305-10.305H10.414z" fill="#5a97f7" data-fill-palette-color="accent"></path><g fill="#5a97f7" data-fill-palette-color="accent"><path fill="#5a97f7" d="M38.547 40.832h0.014l0.012 0c2.979-0.08 5.059-2.064 5.059-4.825 0-2.833-2.139-4.889-5.084-4.889-2.862 0-5.021 2.074-5.021 4.825C33.526 38.775 35.638 40.832 38.547 40.832z" data-fill-palette-color="accent"></path><path fill="#5a97f7" d="M61.435 40.832h0.014l0.014 0c2.978-0.08 5.056-2.064 5.056-4.825 0-2.833-2.137-4.889-5.083-4.889-2.861 0-5.021 2.074-5.021 4.825C56.414 38.775 58.526 40.832 61.435 40.832z" data-fill-palette-color="accent"></path><path fill="#5a97f7" d="M79.31 41.996c-1.26-1.163-3.405-1.077-4.569 0.183-6.662 7.231-16.252 11.215-26.09 10.818-8.968-0.361-17.258-4.196-23.346-10.799-1.162-1.258-3.306-1.347-4.567-0.184-1.31 1.209-1.393 3.259-0.185 4.567 7.254 7.869 17.141 12.442 27.835 12.878 0.542 0.022 1.079 0.032 1.617 0.032 0.58 0 1.157-0.013 1.736-0.036C62.396 59 72.25 54.42 79.494 46.561c0.584-0.635 0.889-1.459 0.854-2.322C80.312 43.376 79.94 42.579 79.31 41.996z" data-fill-palette-color="accent"></path></g></g></svg></g></svg></g><path d="M33.474 71.503L16.594 65.672 17.536 62.943 32.053 67.957 35.088 59.17 37.451 59.987ZM44.077 50.304C42.52 52.685 40.702 54.076 38.621 54.478 36.535 54.876 34.191 54.224 31.589 52.523V52.523C29.004 50.833 27.473 48.95 26.996 46.876 26.519 44.802 27.059 42.574 28.615 40.194V40.194C29.889 38.245 31.404 36.987 33.158 36.419 34.914 35.861 36.722 36.189 38.582 37.406V37.406L36.975 39.864C35.796 39.093 34.652 38.866 33.543 39.184 32.438 39.497 31.481 40.27 30.674 41.505V41.505C29.603 43.143 29.26 44.646 29.646 46.013 30.031 47.371 31.175 48.684 33.08 49.953V49.953L33.321 50.111C35.253 51.374 36.921 51.904 38.327 51.701 39.738 51.501 40.979 50.582 42.05 48.944V48.944C42.887 47.665 43.234 46.457 43.091 45.321 42.958 44.183 42.302 43.229 41.123 42.457V42.457L42.676 40.083C44.553 41.31 45.578 42.83 45.752 44.643 45.92 46.452 45.362 48.339 44.077 50.304ZM51.066 40.792L39.069 27.563 45.47 21.757C46.847 20.509 48.231 19.928 49.622 20.015 51.013 20.101 52.287 20.782 53.442 22.056V22.056C54.593 23.325 55.135 24.681 55.069 26.125 55.008 27.564 54.302 28.897 52.95 30.123V30.123L48.746 33.935 53.204 38.852ZM47.086 32.105L51.216 28.36C51.898 27.742 52.243 27.045 52.253 26.268 52.267 25.496 51.943 24.745 51.281 24.015V24.015C50.615 23.28 49.915 22.883 49.183 22.824 48.446 22.76 47.718 23.054 46.998 23.707V23.707L42.867 27.453ZM80.383 22.677C77.716 23.664 75.427 23.7 73.515 22.785 71.602 21.864 70.106 19.945 69.027 17.03V17.03C67.955 14.133 67.845 11.709 68.696 9.758 69.547 7.807 71.306 6.338 73.973 5.351V5.351C76.157 4.543 78.123 4.433 79.87 5.021 81.614 5.617 82.872 6.957 83.643 9.041V9.041L80.889 10.06C80.4 8.739 79.615 7.876 78.535 7.472 77.46 7.065 76.231 7.118 74.848 7.63V7.63C73.012 8.309 71.842 9.313 71.339 10.642 70.841 11.962 70.979 13.698 71.754 15.852V15.852L71.854 16.121C72.655 18.286 73.681 19.705 74.931 20.378 76.184 21.057 77.728 21.057 79.565 20.378V20.378C80.998 19.848 81.995 19.084 82.557 18.086 83.127 17.092 83.168 15.934 82.679 14.613V14.613L85.34 13.629C86.118 15.732 86.038 17.563 85.099 19.124 84.157 20.678 82.586 21.862 80.383 22.677ZM91.638 19.201L89.93 1.424 92.804 1.148 93.518 8.585 102.585 7.714 101.87 0.277 104.754 0 106.462 17.777 103.578 18.054 102.824 10.202 93.758 11.073 94.512 18.925ZM109.373 18.16L119.544 1.92 123.13 2.605 126.584 21.446 123.563 20.869 122.77 16.293 114.691 14.751 112.287 18.716ZM116.041 12.494L122.307 13.69 121.37 8.178 120.845 4.684 120.718 4.66 120.367 5.279C119.905 6.114 119.443 6.911 118.982 7.671V7.671ZM132.045 23.874L138.078 9.75 132.622 7.42 133.604 5.121 147.171 10.916 146.189 13.215 140.733 10.884 134.7 25.008ZM143.211 29.425L153.801 15.045 161.135 20.446C161.918 21.022 162.505 21.681 162.896 22.421 163.288 23.161 163.459 23.927 163.409 24.72 163.353 25.509 163.069 26.252 162.555 26.95V26.95C161.967 27.749 161.236 28.278 160.362 28.539 159.494 28.803 158.621 28.784 157.742 28.482V28.482L157.678 28.57C158.38 29.367 158.758 30.265 158.811 31.265 158.863 32.265 158.534 33.247 157.824 34.211V34.211C156.879 35.494 155.762 36.163 154.474 36.216 153.181 36.266 151.871 35.803 150.545 34.826V34.826ZM151.696 22.773L156.185 26.079C156.841 26.561 157.503 26.766 158.173 26.693 158.842 26.61 159.398 26.268 159.841 25.666V25.666C160.335 24.995 160.525 24.358 160.41 23.756 160.295 23.154 159.923 22.621 159.294 22.158V22.158L154.661 18.746ZM147.001 29.148L151.842 32.713C152.54 33.227 153.215 33.453 153.868 33.392 154.512 33.332 155.108 32.929 155.657 32.184V32.184C156.191 31.459 156.394 30.759 156.268 30.083 156.142 29.407 155.687 28.78 154.904 28.204V28.204L150.231 24.762ZM162.3 47.913C160.554 45.659 159.815 43.441 160.082 41.26 160.355 39.074 161.7 37.045 164.116 35.174V35.174C166.531 33.302 168.832 32.508 171.016 32.79 173.196 33.076 175.159 34.346 176.904 36.6V36.6C178.658 38.864 179.401 41.087 179.134 43.269 178.861 45.455 177.516 47.484 175.1 49.355V49.355C172.685 51.226 170.384 52.021 168.2 51.739 166.02 51.452 164.053 50.177 162.3 47.913ZM164.229 46.418C166.684 49.587 169.655 49.821 173.143 47.119V47.119L173.386 46.931C176.888 44.193 177.417 41.248 174.975 38.095V38.095C172.54 34.952 169.56 34.734 166.034 37.44V37.44L165.791 37.628C162.303 40.33 161.783 43.26 164.229 46.418ZM171.386 62.726L185.575 56.848 183.305 51.367 185.614 50.41 191.26 64.04 188.951 64.997 186.68 59.516 172.491 65.393ZM20.434 117.066L37.598 111.113 38.56 113.888 23.796 119.008 26.895 127.941 24.495 128.774ZM32.078 141.718C30.49 139.295 29.934 137.029 30.411 134.921 30.888 132.814 32.449 130.893 35.093 129.16V129.16C37.721 127.438 40.099 126.777 42.228 127.177 44.356 127.577 46.215 128.988 47.803 131.412V131.412C49.097 133.386 49.648 135.307 49.455 137.173 49.266 139.045 48.229 140.599 46.342 141.835V141.835L44.7 139.329C45.895 138.546 46.572 137.576 46.731 136.42 46.887 135.258 46.554 134.049 45.731 132.793V132.793C44.639 131.128 43.381 130.197 41.955 130.001 40.529 129.804 38.837 130.336 36.879 131.596V131.596L36.63 131.759C34.666 133.046 33.494 134.388 33.112 135.785 32.727 137.176 33.08 138.704 34.172 140.369V140.369C35.024 141.669 36.007 142.488 37.122 142.825 38.242 143.158 39.399 142.934 40.594 142.15V142.15L42.177 144.565C40.274 145.812 38.441 146.148 36.679 145.571 34.917 144.994 33.383 143.709 32.078 141.718ZM41.781 153.448L53.972 139.98 60.489 145.879C61.891 147.149 62.618 148.489 62.67 149.901 62.722 151.322 62.162 152.68 60.99 153.974V153.974C59.818 155.269 58.499 155.957 57.033 156.04 55.571 156.117 54.151 155.532 52.773 154.285V154.285L48.492 150.41 43.958 155.419ZM50.177 148.549L54.384 152.357C55.075 152.983 55.815 153.265 56.604 153.202 57.387 153.135 58.116 152.729 58.791 151.983V151.983C59.465 151.238 59.798 150.491 59.789 149.742 59.771 148.994 59.396 148.289 58.665 147.628V147.628L54.458 143.819ZM75.285 174.84C72.569 173.83 70.779 172.336 69.913 170.356 69.047 168.375 69.165 165.904 70.267 162.94V162.94C71.362 159.995 72.885 158.053 74.836 157.113 76.787 156.173 79.121 156.207 81.836 157.217V157.217C84.049 158.04 85.632 159.259 86.583 160.876 87.541 162.495 87.627 164.362 86.841 166.476V166.476L84.032 165.432C84.53 164.093 84.5 162.911 83.943 161.885 83.38 160.857 82.394 160.081 80.987 159.558V159.558C79.121 158.864 77.555 158.861 76.291 159.548 75.026 160.235 73.979 161.667 73.149 163.842V163.842L73.046 164.121C72.227 166.322 72.079 168.098 72.6 169.449 73.115 170.798 74.305 171.819 76.171 172.513V172.513C77.628 173.054 78.905 173.13 80.003 172.741 81.103 172.345 81.901 171.478 82.399 170.139V170.139L85.105 171.145C84.313 173.277 83.036 174.634 81.275 175.214 79.513 175.794 77.517 175.67 75.285 174.84ZM90.079 178.526L91.846 160.446 94.769 160.732 94.029 168.296 103.262 169.198 104.001 161.634 106.924 161.92 105.157 180 102.234 179.714 103.015 171.726 93.782 170.824 93.002 178.812ZM111.702 179.452L115.269 160.286 118.905 159.597 129.209 176.133 126.139 176.715 123.677 172.678 115.459 174.236 114.665 178.89ZM115.898 171.598L122.273 170.389 119.332 165.524 117.532 162.422 117.395 162.448 117.289 163.165C117.168 164.123 117.03 165.048 116.876 165.939V165.939ZM137.281 172.916L131.172 158.533 125.62 160.891 124.627 158.553 138.444 152.686 139.437 155.024 133.885 157.381 139.993 171.765ZM151.123 165.892L140.389 151.236 147.865 145.76C148.666 145.174 149.485 144.804 150.323 144.649 151.161 144.494 151.954 144.565 152.704 144.861 153.459 145.152 154.096 145.653 154.616 146.363V146.363C155.21 147.174 155.501 148.042 155.491 148.968 155.48 149.894 155.196 150.738 154.639 151.499V151.499L154.703 151.587C155.69 151.143 156.674 151.049 157.657 151.305 158.645 151.557 159.499 152.174 160.218 153.156V153.156C161.179 154.468 161.489 155.758 161.146 157.026 160.804 158.293 159.955 159.423 158.599 160.416V160.416ZM147.249 155.632L151.828 152.278C152.495 151.79 152.892 151.208 153.02 150.532 153.152 149.861 152.994 149.219 152.544 148.605V148.605C152.044 147.922 151.485 147.545 150.866 147.473 150.243 147.405 149.611 147.606 148.97 148.075V148.075L144.248 151.533ZM152.004 162.123L156.942 158.506C157.652 157.986 158.078 157.404 158.22 156.758 158.359 156.108 158.152 155.406 157.601 154.654V154.654C157.058 153.912 156.44 153.5 155.748 153.416 155.05 153.337 154.304 153.588 153.509 154.171V154.171L148.738 157.665ZM173.582 145.096C171.806 147.377 169.805 148.661 167.578 148.947 165.356 149.229 163.018 148.415 160.565 146.505V146.505C158.117 144.6 156.757 142.535 156.485 140.311 156.217 138.082 156.97 135.828 158.746 133.547V133.547C160.538 131.245 162.545 129.953 164.767 129.672 166.99 129.39 169.325 130.202 171.773 132.108V132.108C174.226 134.018 175.589 136.084 175.861 138.308 176.133 140.532 175.374 142.794 173.582 145.096ZM171.617 143.566C174.124 140.346 173.608 137.359 170.069 134.604V134.604L169.819 134.409C166.242 131.649 163.206 131.872 160.711 135.077V135.077C158.228 138.266 158.763 141.255 162.316 144.046V144.046L162.567 144.241C166.105 146.996 169.122 146.771 171.617 143.566ZM184.048 126.782L169.625 120.768 167.304 126.336 164.959 125.359 170.736 111.503 173.081 112.481 170.759 118.048 185.182 124.062ZM16.796 92.012C16.796 88.179 19.902 85.072 23.735 85.072 27.568 85.072 30.675 88.179 30.675 92.012 30.675 95.844 27.568 98.951 23.735 98.951 19.902 98.951 16.796 95.844 16.796 92.012ZM177.527 92.012C177.527 88.179 180.634 85.072 184.467 85.072 188.299 85.072 191.406 88.179 191.406 92.012 191.406 95.844 188.299 98.951 184.467 98.951 180.634 98.951 177.527 95.844 177.527 92.012Z" fill="#5a97f7" data-fill-palette-color="primary"></path></svg></g></svg></g></svg></g><g></g></svg></g></svg></g></svg></g><defs></defs></svg><rect width="320" height="360" fill="none" stroke="none" visibility="hidden"></rect></g></svg></g></svg>